<svg xmlns="http://www.w3.org/2000/svg" viewBox="0 0 48 48">
    <defs>
        <style>
            .cls-1{fill:#12120d;}
            @media (prefers-color-scheme: dark) {
                .cls-1 {fill: #fff;}
            }
        </style>
    </defs>
    <g>
        <path class="cls-1" d="M42.12,19.4a23.51,23.51,0,0,0,1.16,2.28A11.25,11.25,0,0,1,44.51,24a2.74,2.74,0,0,0,.18.48c.07.12.31.14.33.17a6.54,6.54,0,0,1,.13,1.47,8.61,8.61,0,0,1,.1,2c0,.22-.23.42-.27.59a1.23,1.23,0,0,0,0,.37c0,.14-.1.2-.09.35a6.35,6.35,0,0,1,.08.8,2.38,2.38,0,0,1-.49,1.19,1.49,1.49,0,0,0-.14.51,1.82,1.82,0,0,1-.35.66,4.07,4.07,0,0,0-.42,1c-.18.6-.24,1.16-.42,1.58,0,.08-.15.15-.17.24a1.2,1.2,0,0,1-.16.32c0,.08,0,.26-.08.35s-.25.23-.27.34,0,.15,0,.22a1.21,1.21,0,0,1-.1.23,4.39,4.39,0,0,0-.28.4,4.29,4.29,0,0,1-.43.64c-.09.08-.33.13-.39.25s.06.13,0,.17a1.56,1.56,0,0,0-.62.7,4.25,4.25,0,0,1-.69.8l-.52.53a22.31,22.31,0,0,1-2.66,2.2,6,6,0,0,1-1.74,1c-.14.05-.08.12-.21.21s-.5.19-.71.3-.11.14-.19.19a1.44,1.44,0,0,0-.25.08,5.55,5.55,0,0,1-.86.46c-.28.19-.1.26-.46.37a3.25,3.25,0,0,0-.5.2,1.9,1.9,0,0,1-.67.32c-.11,0-.15.1-.25.1s-.14-.06-.2,0-.07.12-.09.14-.14,0-.26.06a1,1,0,0,0-.4.2c-.13.13-.11.23-.23.3s-.29,0-.47.09a11.13,11.13,0,0,1-1.16.24,2.43,2.43,0,0,0-.47,0c-.09,0-.33.21-.37.22h-.15c-.06,0-.12.19-.21.25s-.11,0-.18,0-.17.07-.21.07a4.63,4.63,0,0,0-.52-.07,7.33,7.33,0,0,1-1.16.14c-.15,0-.33-.14-.48-.16a1.47,1.47,0,0,0-.21,0c-.16,0-.18-.11-.27-.12s-.16,0-.25.05-.11-.11-.23-.08a3.2,3.2,0,0,1-.51-.12c-.2-.06-.37-.14-.53-.19-.38-.11-1.19-.25-1.41-.36a1.53,1.53,0,0,0-.57-.19,4.32,4.32,0,0,1-.68-.09,3.71,3.71,0,0,0-.41-.12,2.8,2.8,0,0,1-.57-.14c-.13,0-.17,0-.27-.06s-.78-.38-.82-.4-.45-.2-.79-.39c-.17-.11-1.06-.5-1.26-.58a18.45,18.45,0,0,1-4.2-3.11c-1.69-1.77-3.36-3.59-5-5.62a30.82,30.82,0,0,1-2.18-3.4,8,8,0,0,1-.8-2.09,23.31,23.31,0,0,1-.65-7.58c0-.3,0-.47.06-.82,0-.17.07-.39.1-.59a3.2,3.2,0,0,0,0-.56c0-.07.09-.54.1-.69a9.8,9.8,0,0,0,0-1,3.57,3.57,0,0,1,0-.46,2.44,2.44,0,0,0,0-.26A2.08,2.08,0,0,1,3.18,18c.14-.47.51-1.86.67-2.45a15.06,15.06,0,0,1,1.52-3.31A25.12,25.12,0,0,1,7.66,9.08,10.33,10.33,0,0,1,9.05,7.24c.5-.44.89-.84,1.32-1.22a11.44,11.44,0,0,1,1-.75c.44-.35,1.3-.89,1.42-1a29.6,29.6,0,0,1,6.23-2.53,19.92,19.92,0,0,1,3-.73C23.52.85,25.1.84,26.58.68a19.37,19.37,0,0,1,5.49,0l.68.1a9.24,9.24,0,0,1,4.88,2.11C38.08,3.3,38.93,4,39,4.1c.37.21.46.56.83.83a3.19,3.19,0,0,1,1,.92c.42.74.7,1.61,1.15,2.28a8.85,8.85,0,0,1,.66,1.07c.12.23.12.36.31.69.11.18,0,.29.1.41s.19.1.27.26,0,.3.09.47.15.28.2.45a3,3,0,0,1,.19.77s-.07.06-.09.11a2.18,2.18,0,0,0-.08.4c0,.38.14.44-.25.57-.22.06-.4.23-.52.22s-.29-.17-.32-.16.16.49.16.49c0,.21-.08.3-.15.6-.12.55-.5.81-.69,1.16a2.23,2.23,0,0,1-.21.37s-.14-.08-.24-.05a1.11,1.11,0,0,1-.19.09,1.61,1.61,0,0,1-.49,0c-.09,0-.17-.12-.26-.09s0,.16-.1.22a1.51,1.51,0,0,1-.55.23,1.29,1.29,0,0,0-.37.17c-.11,0-.2-.09-.34-.1s-.37.07-.51,0-.48-.39-.76-.37a.82.82,0,0,1-.43-.14c-.05,0-.13.07-.23.14a.54.54,0,0,1-.27.05c-.16,0-.28-.23-.49-.29a.7.7,0,0,1-.27-.06c-.53-.31-1.18-.6-1.53-.87s-.47-.55-.81-.63c-.06,0-.13.06-.18,0s-.49-.19-.73-.26a19,19,0,0,0-2.61-.35,16.55,16.55,0,0,0-4.92-.06L23.79,14c-.32.06-.8.27-1,.29s-.13.08-.22.09a1,1,0,0,1-.3,0,.33.33,0,0,0-.24.08,1.25,1.25,0,0,1-.26.13c-.26,0-.36,0-.53.09s-.23.25-.27.27-.13,0-.2,0-.09.12-.22.18a7.28,7.28,0,0,0-1.39.92c-.47.39-.92.81-1.35,1.24-.21.22-.46.4-.65.62s-.12.21-.21.32-.25.25-.4.44-.09.06-.14.14A4.08,4.08,0,0,0,15.92,20c0,.11-.12.17-.14.3a2.06,2.06,0,0,1,0,.35c-.08.37-.33.67-.32,1,0,.18-.12.26-.14.51s-.06.59-.06.7c0,.27,0,.56,0,.84,0,.51.12,1.1.1,1.37,0,.08-.1.19-.11.26s.1.3.11.43a6.12,6.12,0,0,0,.16,1.2s.11.29.16.49a13.74,13.74,0,0,0,2.78,5.24,20.69,20.69,0,0,0,2.72,2.52c.2.16.41.27.59.41a8.38,8.38,0,0,0,.86.55,5.75,5.75,0,0,0,.87.48,6,6,0,0,0,1.18.36,6.65,6.65,0,0,0,1.26.22,7.65,7.65,0,0,0,1.05-.17c.14,0,.44-.12.66-.17s1-.1,1.22-.18.4-.22.52-.28.43-.19.63-.29.45-.3.81-.5a8.54,8.54,0,0,0,1.08-.7l.21-.16.21-.13c.09-.07.15-.17.27-.27.59-.46,1.15-.94,1.72-1.4a6.77,6.77,0,0,0,.62-.68c.08-.09.11-.06.22-.13a3.06,3.06,0,0,0,.3-.32c.34-.36.83-.93,1.14-1.28a3.25,3.25,0,0,0,.28-.52,7,7,0,0,0,.62-1.1c.19-.43.35-.57.45-.82s.06-.43.12-.58.08-.17.12-.3a17.78,17.78,0,0,0,.68-1.76c.07-.29,0-.63.09-.92a7.84,7.84,0,0,0,.14-1.29c0-.35.05-.75.06-1.08a3.31,3.31,0,0,0,.08-.92,5.22,5.22,0,0,1-.09-1.22,2.21,2.21,0,0,0,0-.58c0-.11.12,0,.08-.17a2.45,2.45,0,0,1,0-1.29.43.43,0,0,1,0,0h0c.14,0,.2.13.31.19,0-.22-.14-.42-.1-.6v0s-.06-.15,0-.18a1.51,1.51,0,0,0,.34-.13.68.68,0,0,1,.21,0h.2l.08,0a.27.27,0,0,1,.12.06.45.45,0,0,0,.16.12.1.1,0,0,1,.06,0c.11.08.19.17.28.22l0,0s0,0,0,.05.15.19.21.27,0,.07.07.1.32.37.37.44a2.49,2.49,0,0,0,.28.34,3,3,0,0,0,.29.39"/>
    </g>
</svg>
